# xmcd
#
# Track frame offsets: 
#        150
#        39386
#        56980
#        82950
#        96440
#        113592
#        139410
#        149436
#        160650
#        180488
#        208224
#        230038
#        250715
#        273375
#        291323
#        305779
#        321266
#        337778
#
# Disc length: 4678 seconds
#
# Revision: 0
# Processed by: cddbd v1.4PL0 Copyright (c) Steve Scherf et al.
# Submitted via: ExactAudioCopy v0.90a11
#
DISCID=11124412
DTITLE=Riverdance - Celtic Dance
DYEAR=1900
DGENRE=
TTITLE0=Reel Around The Sun
TTITLE1=Carrickfergus
TTITLE2=Riverdance
TTITLE3=Hell's Kitchen
TTITLE4=Duelling Violins
TTITLE5=The countess Cathleen - Women Of The Siddle
TTITLE6=Gypsy
TTITLE7=Cry Of The Celts
TTITLE8=Andalucia
TTITLE9=Marta's Dance - The Russian Dervish
TTITLE10=The Lord Of The Dance
TTITLE11=Siamsa
TTITLE12=Lift The Wings
TTITLE13=Stirng Of Fire
TTITLE14=Fiery Nights
TTITLE15=Lament
TTITLE16=Nightmare
TTITLE17=Victory
EXTD=
EXTT0=
EXTT1=
EXTT2=
EXTT3=
EXTT4=
EXTT5=
EXTT6=
EXTT7=
EXTT8=
EXTT9=
EXTT10=
EXTT11=
EXTT12=
EXTT13=
EXTT14=
EXTT15=
EXTT16=
EXTT17=
PLAYORDER=
